<?xml version="1.0" encoding="UTF-8"?>
<svg width="46px" height="46px" viewBox="0 0 46 46" version="1.1" xmlns="http://www.w3.org/2000/svg" xmlns:xlink="http://www.w3.org/1999/xlink">
    <!-- Generator: Sketch 52.5 (67469) - http://www.bohemiancoding.com/sketch -->
    <title>communication</title>
    <desc>Created with Sketch.</desc>
    <defs>
        <polygon id="path-1" points="0.00585365854 0.0972682927 31.9912195 0.0972682927 31.9912195 26.0580488 0.00585365854 26.0580488"></polygon>
    </defs>
    <g id="communication" stroke="none" stroke-width="1" fill="none" fill-rule="evenodd">
        <g id="011-support" transform="translate(7.000000, 10.000000)">
            <mask id="mask-2" fill="white">
                <use xlink:href="#path-1"></use>
            </mask>
            <g id="Clip-2"></g>
            <path d="M29.6203902,0.0972682927 L7.66917073,0.0972682927 C6.35209756,0.0972682927 5.29843902,1.18 5.29843902,2.46770732 L5.29843902,16.1068293 C5.29843902,17.4239024 6.38146341,18.4776585 7.66917073,18.4776585 L22.8010732,18.4776585 L26.2252683,21.931122 C26.3716098,22.0774634 26.5472195,22.1654634 26.7522927,22.1654634 C27.1619512,22.1654634 27.5129756,21.8435122 27.5129756,21.4044878 L27.5129756,18.4776585 L29.6203902,18.4776585 C30.9374634,18.4776585 31.9912195,17.3945366 31.9912195,16.1068293 L31.9912195,2.46770732 C31.9912195,1.15063415 30.9081951,0.0972682927 29.6203902,0.0972682927 Z M11.0350244,11.833561 C9.83502439,11.833561 8.83990244,10.8385366 8.83990244,9.63843902 C8.83990244,8.43873171 9.83502439,7.44331707 11.0350244,7.44331707 C12.235122,7.44331707 13.2301463,8.43873171 13.2301463,9.63843902 C13.2301463,10.8385366 12.2644878,11.833561 11.0350244,11.833561 Z M18.7324878,11.833561 C17.5327805,11.833561 16.5373659,10.8385366 16.5373659,9.63843902 C16.5373659,8.43873171 17.5327805,7.44331707 18.7324878,7.44331707 C19.9325854,7.44331707 20.9276098,8.43873171 20.9276098,9.63843902 C20.9276098,10.8385366 19.9325854,11.833561 18.7324878,11.833561 Z M26.400878,11.833561 C25.200878,11.833561 24.2057561,10.8385366 24.2057561,9.63843902 C24.2057561,8.43873171 25.200878,7.44331707 26.400878,7.44331707 C27.6009756,7.44331707 28.596,8.43873171 28.596,9.63843902 C28.596,10.8385366 27.6009756,11.833561 26.400878,11.833561 Z" id="Fill-1" fill="#FFFFFF" mask="url(#mask-2)"></path>
            <path d="M3.952,16.1654634 L3.952,11.5119024 L1.55219512,11.5119024 C0.703512195,11.5119024 0.000780487805,12.2142439 0.000780487805,13.0630244 L0.000780487805,22.019122 C-0.028195122,22.9265366 0.674146341,23.628878 1.55219512,23.628878 L2.92760976,23.628878 L2.92760976,25.5606829 C2.92760976,25.824 3.16195122,26.0580488 3.42526829,26.0580488 C3.57160976,26.0580488 3.68868293,25.9997073 3.77668293,25.9117073 L6.03014634,23.6582439 L15.9813659,23.6582439 C16.8300488,23.6582439 17.5327805,22.9555122 17.5327805,22.1068293 L17.5327805,19.8823415 L7.66917073,19.8823415 C5.62039024,19.8823415 3.952,18.2142439 3.952,16.1654634 Z" id="Fill-3" fill="#FFFFFF" mask="url(#mask-2)"></path>
        </g>
    </g>
</svg>