<?xml version="1.0" encoding="UTF-8"?>
<svg width="46px" height="46px" viewBox="0 0 46 46" version="1.1" xmlns="http://www.w3.org/2000/svg" xmlns:xlink="http://www.w3.org/1999/xlink">
    <!-- Generator: Sketch 52.5 (67469) - http://www.bohemiancoding.com/sketch -->
    <title>ides</title>
    <desc>Created with Sketch.</desc>
    <g id="ides" stroke="none" stroke-width="1" fill="none" fill-rule="evenodd">
        <g id="003-bug" transform="translate(7.000000, 7.000000)" fill="#FFFFFF">
            <path d="M31.5838134,17.0761516 C31.3312653,16.8228571 31.0309504,16.6964431 30.6847347,16.6964431 L26.2099592,16.6964431 L26.2099592,10.8229038 L29.6661458,7.36699708 C29.9190671,7.1140758 30.0459475,6.81413411 30.0459475,6.46791837 C30.0459475,6.12170262 29.9190671,5.82213411 29.6661458,5.56883965 C29.4132245,5.31601166 29.113656,5.18950437 28.7671603,5.18950437 C28.4209446,5.18950437 28.1213761,5.31601166 27.8684548,5.56883965 L24.4121749,9.02511953 L7.55134694,9.02511953 L4.09544023,5.56883965 C3.84223907,5.31601166 3.54267055,5.18950437 3.19645481,5.18950437 C2.84986589,5.18950437 2.55029738,5.31601166 2.29737609,5.56883965 C2.04408163,5.82176093 1.91766764,6.12170262 1.91766764,6.46791837 C1.91766764,6.81413411 2.04408163,7.1140758 2.29737609,7.36699708 L5.7532828,10.8229038 L5.7532828,16.6964431 L1.27841399,16.6964431 C0.932198251,16.6964431 0.632629738,16.8228571 0.379708455,17.0761516 C0.126413994,17.3290729 0,17.6290146 0,17.9748571 C0,18.3214461 0.126413994,18.6213878 0.379708455,18.8739359 C0.632629738,19.1272303 0.932198251,19.2540175 1.27841399,19.2540175 L5.7532828,19.2540175 C5.7532828,21.3844898 6.13989504,23.209516 6.91218659,24.7274169 L2.87682799,29.2619942 C2.65049563,29.5288163 2.54740525,29.8381808 2.56746356,30.1909271 C2.58705539,30.5433936 2.72373178,30.8396968 2.97665306,31.0798367 C3.22994752,31.2930146 3.51608163,31.3997434 3.83561516,31.3997434 C4.20841983,31.3997434 4.52804665,31.2601749 4.7948688,30.9802915 L8.45042566,26.8447347 L8.75036735,27.1249913 C8.93658309,27.298519 9.22598251,27.5142157 9.61912536,27.7736676 C10.0119883,28.0334927 10.4514985,28.2934111 10.937656,28.5536093 C11.4238134,28.8130612 12.0032653,29.0327697 12.6756385,29.2124548 C13.3483848,29.3925131 14.0240233,29.4825423 14.7033936,29.4825423 L14.7033936,11.5830671 L17.2605948,11.5830671 L17.2605948,29.4825423 C17.8997551,29.4825423 18.5455394,29.3957784 19.1978542,29.2227172 C19.8505423,29.0495627 20.3968746,28.8564431 20.8363848,28.6432653 C21.2755219,28.4299942 21.7091545,28.1873353 22.1348571,27.9143557 C22.5612128,27.6413761 22.840723,27.4515219 22.9737609,27.344793 C23.1075452,27.2379708 23.2069971,27.1515802 23.2737026,27.0852478 L27.2292012,31.0204082 C27.4697143,31.2737026 27.7686297,31.4001166 28.1282799,31.4001166 C28.48793,31.4001166 28.7874985,31.2737026 29.0277318,31.0204082 C29.2802799,30.7674869 29.4070671,30.4675452 29.4070671,30.1213294 C29.4070671,29.7751137 29.2802799,29.4752653 29.0277318,29.222344 L24.8721166,25.0474169 C25.7645714,23.4624373 26.2106122,21.5313353 26.2106122,19.2540175 L30.685481,19.2540175 C31.03207,19.2540175 31.3320117,19.1276035 31.5845598,18.874309 C31.837481,18.6213878 31.9646414,18.3218192 31.9646414,17.9752303 C31.9646414,17.6290146 31.837481,17.3290729 31.5838134,17.0761516 Z" id="Fill-1"></path>
            <path d="M20.507242,1.9435102 C19.2620408,0.698215743 17.753656,0.0754752187 15.9821808,0.0754752187 C14.2106122,0.0754752187 12.7026006,0.698215743 11.4573994,1.9435102 C10.2124781,3.18880466 9.59001749,4.6971895 9.59001749,6.46829155 L22.3746239,6.46829155 C22.3746239,4.6971895 21.7521633,3.18880466 20.507242,1.9435102 Z" id="Fill-2"></path>
        </g>
    </g>
</svg>