<?xml version="1.0" encoding="UTF-8"?>
<svg width="46px" height="46px" viewBox="0 0 46 46" version="1.1" xmlns="http://www.w3.org/2000/svg" xmlns:xlink="http://www.w3.org/1999/xlink">
    <!-- Generator: Sketch 52.5 (67469) - http://www.bohemiancoding.com/sketch -->
    <title>os_settings</title>
    <desc>Created with Sketch.</desc>
    <g id="os_settings" stroke="none" stroke-width="1" fill="none" fill-rule="evenodd">
        <path d="M37.1334043,33.9582445 L26.8175357,23.6420215 C26.7209668,23.5448324 26.6174874,23.4589835 26.5112615,23.3783617 L28.3381868,21.4545131 C28.4316549,21.3604248 28.5198959,21.2613752 28.6012265,21.1596677 C31.0268793,22.0746807 33.8733602,21.5603846 35.8228129,19.6109319 C37.2447687,18.1882673 37.9622141,16.2211841 37.7884785,14.2136128 C37.7697849,13.9865429 37.6192614,13.7899498 37.4053921,13.7124288 C37.1908141,13.6342877 36.9502777,13.6875335 36.7890341,13.8485113 L33.4829204,17.1545364 L30.135344,16.310754 L29.1860445,12.8576606 L32.4914495,9.55190126 C32.6537562,9.39030329 32.7067363,9.14976684 32.6285065,8.93554322 C32.5506312,8.72069943 32.3543924,8.57150481 32.1267023,8.55139366 C30.1191311,8.37836689 28.1519593,9.09545788 26.7292947,10.5178567 C24.7812596,12.4658918 24.2655459,15.3106008 25.1795844,17.7352791 C25.080269,17.8193561 24.9812193,17.9086603 24.8843846,18.0041661 L22.1949833,20.5868985 L17.2568541,15.6491238 C17.1952803,15.5874614 17.129454,15.532798 17.0616785,15.4819443 C17.1197971,15.3802368 17.1758779,15.2753399 17.2285036,15.1669877 C18.271537,15.3677448 20.1781095,13.3366072 21.7973672,11.7180582 L17.0800177,7 C14.9706504,9.10963314 13.4303312,10.5258302 13.6299365,11.5685093 C13.1478891,11.804173 12.7180243,12.0924623 12.4124589,12.3983822 L11.7479935,13.0624931 C11.3164454,13.49475 11.0562408,14.0319037 10.9634815,14.5918265 C10.8987182,14.6655379 10.8333348,14.7430588 10.7683058,14.8258069 L10.5205046,15.1372197 C10.5135941,15.1448389 10.4920654,15.1753157 10.4862182,15.1832893 L10.2619833,15.4975371 C10.121471,15.6847391 9.9985892,15.8882427 9.88022577,16.0844814 C9.83628246,16.157484 9.79163039,16.2304866 9.74626956,16.3032234 C9.73900474,16.3159812 9.73173992,16.3281187 9.72553824,16.3405221 L9.62551406,16.5285215 C9.50511294,16.7547941 9.38019346,16.9887745 9.27290446,17.2462326 L9.25553976,17.2870751 C9.12964573,17.5871476 8.99843598,17.8975858 8.90744852,18.2266291 L8.86315083,18.3689133 C8.82718111,18.4862135 8.79014824,18.6028937 8.75657059,18.7426972 L8.66478578,19.1967485 C8.59630156,19.4805195 8.57344395,19.7604809 8.55342139,20.0086365 L8.5398663,20.171652 C8.50628865,20.4287558 8.51603414,20.6713299 8.52533666,20.8851992 C8.5284375,20.9572272 8.53127255,21.0274834 8.53331024,21.1222804 C8.53570232,21.1617054 8.5360567,21.2001557 8.53747422,21.2382518 C8.53951192,21.3337576 8.54234697,21.4423755 8.56068621,21.556575 L8.61809602,21.9248659 C8.63058797,21.9960966 8.64095363,22.0653782 8.6509649,22.1318247 C8.67275937,22.2812851 8.69561697,22.4359727 8.73991466,22.583041 L8.98151426,23.4202673 C9.05593438,23.674979 9.29744538,23.8434874 9.56216836,23.8247938 C9.70197187,23.8151369 9.8279545,23.7545377 9.921777,23.6607152 C10.0051453,23.5769925 10.0633524,23.4669571 10.0809829,23.3430121 L10.2059024,22.4916992 C10.2152049,22.4241895 10.2443528,22.3252284 10.2743866,22.2204201 C10.2959153,22.1476833 10.3166466,22.0736176 10.3325938,22.0106263 L10.4215435,21.6929232 C10.4322636,21.6496887 10.4533493,21.6078717 10.4720429,21.5649029 C10.4896734,21.5251236 10.5073039,21.4839267 10.5228966,21.4434387 C10.5526647,21.375929 10.5810152,21.3085079 10.6083912,21.2392263 C10.6634089,21.1032324 10.7153258,20.9755665 10.7942643,20.8499382 C10.8288165,20.792174 10.8607108,20.7343213 10.8932253,20.6758483 C10.9758848,20.5280712 11.0541145,20.3886221 11.1472283,20.2730051 C11.1530756,20.2664491 11.1583027,20.2584755 11.1645044,20.2505019 L11.3742982,19.961238 C11.4175328,19.906486 11.4656401,19.8552779 11.5126842,19.803361 C11.5459075,19.7666825 11.5794851,19.730004 11.6216565,19.6818968 C11.7456014,19.5327907 11.8909865,19.4029985 12.0314101,19.2749782 L12.106539,19.2074685 C12.2107272,19.1105452 12.3311283,19.0199121 12.4578197,18.9236975 C12.5097366,18.8848927 12.5602359,18.8465309 12.6101151,18.8087893 C12.674081,18.7672381 12.7360978,18.7256868 12.7969628,18.6848444 C12.9115166,18.6073234 13.0101233,18.5408769 13.1246771,18.4813408 L13.3735415,18.339854 L13.6251524,18.2162634 C13.713039,18.1709912 13.7995081,18.135996 13.8791553,18.1038359 C13.9265539,18.0840791 13.9732436,18.0650311 14.0165668,18.0459831 C14.0608645,18.0308333 14.1033902,18.0141774 14.1435239,17.9992933 C14.1975671,17.979891 14.2442569,17.9608429 14.3076026,17.94463 L14.375378,17.9290372 C14.4494438,18.0491725 14.5363558,18.1630176 14.6401896,18.2668514 L19.525073,23.1520005 L9.09704263,33.1681509 C9.09296724,33.1719606 9.08915764,33.1764789 9.08534804,33.1799341 C7.78751435,34.4776792 7.57639157,36.3779615 8.87422526,37.6761496 C10.1719703,38.9735403 11.9518515,38.6409532 13.2489764,37.3439169 C13.2548237,37.3383354 13.2596965,37.3331969 13.264835,37.327261 L22.4642246,27.6405967 C22.5182678,27.7042968 22.5715136,27.7683513 22.6314041,27.8281531 L32.9465639,38.1443761 C34.1024678,39.3006344 35.9775004,39.3006344 37.1334043,38.1443761 C38.2888652,36.9888266 38.2888652,35.113794 37.1334043,33.9582445 Z M11.9026811,36.2738619 C11.425152,36.7520998 10.6499424,36.7520998 10.171616,36.2738619 C9.69408688,35.7958899 9.69408688,35.0213891 10.171616,34.543417 C10.649588,34.0658879 11.4244432,34.0655335 11.9026811,34.543417 C12.3802987,35.0213891 12.3802987,35.7958899 11.9026811,36.2738619 Z" id="008-hammer" fill="#FFFFFF"></path>
    </g>
</svg>