<?xml version="1.0" encoding="UTF-8"?>
<svg width="46px" height="46px" viewBox="0 0 46 46" version="1.1" xmlns="http://www.w3.org/2000/svg" xmlns:xlink="http://www.w3.org/1999/xlink">
    <!-- Generator: Sketch 52.5 (67469) - http://www.bohemiancoding.com/sketch -->
    <title>rss</title>
    <desc>Created with Sketch.</desc>
    <g id="rss" stroke="none" stroke-width="1" fill="none" fill-rule="evenodd">
        <path d="M11.6652683,9 C13.9933568,9 16.2349479,9.30140611 18.3895077,9.90388461 C20.5440007,10.5063631 22.5608721,11.3589233 24.4397881,12.4616985 C26.3187042,13.5645405 28.0292305,14.8870967 29.5713673,16.4289664 C31.1131703,17.9707695 32.4355262,19.6812958 33.5383015,21.5602119 C34.6411435,23.4394616 35.4936369,25.4559993 36.0963824,27.610826 C36.6989276,29.765319 37,32.0066432 37,34.3350654 C37,35.0702267 36.7398403,35.6980671 36.2189204,36.2189204 C35.6982673,36.7398403 35.0702267,37 34.3350654,37 C33.5998374,37 32.9717968,36.7398403 32.4508768,36.2189204 C31.9302238,35.6982673 31.6697972,35.0702267 31.6697972,34.3350654 C31.6697972,32.4967952 31.4296601,30.7252668 30.9497196,29.0196793 C30.4697791,27.3146258 29.7958201,25.7214315 28.9279093,24.2408307 C28.0597316,22.7600297 27.0184923,21.4121785 25.8030568,20.19701 C24.5878883,18.9818415 23.2399703,17.9402684 21.7594362,17.0720907 C20.2785685,16.2041799 18.6856412,15.5302877 16.9803207,15.0502804 C15.2750669,14.5703399 13.5032715,14.3304698 11.6652683,14.3304698 C10.9300403,14.3304698 10.3019996,14.0700432 9.78134661,13.5493901 C9.26042662,13.0284702 9,12.4004295 9,11.6652683 C9,10.9300403 9.26042662,10.3019996 9.78134661,9.78134661 C10.3019996,9.26042662 10.9300403,9 11.6652683,9 Z M11.6652683,19.0788173 C13.7686371,19.0788173 15.7445957,19.4821382 17.5930107,20.289047 C19.4411587,21.095622 21.0547092,22.1883192 22.4333285,23.5669385 C23.8117475,24.9452908 24.904378,26.5588413 25.7110198,28.4069893 C26.5179285,30.255471 26.9212494,32.231096 26.9212494,34.3347985 C26.9212494,35.0699597 26.660756,35.6980671 26.140103,36.2189204 C25.6192498,36.7395734 24.9914761,37 24.2559811,37 C23.5207531,37 22.8927125,36.7395734 22.3718593,36.2189204 C21.8512062,35.6980671 21.5907129,35.0699597 21.5907129,34.3347985 C21.5907129,32.966324 21.3302863,31.6799419 20.8096332,30.4749849 C20.28878,29.2699612 19.5791141,28.2182434 18.6804353,27.3195647 C17.7817566,26.4209526 16.7300388,25.7112868 15.5250818,25.1903668 C14.320325,24.6697137 13.0334758,24.4092871 11.6652683,24.4092871 C10.9300403,24.4092871 10.3019996,24.1490607 9.78107964,23.6282075 C9.26042662,23.1072875 9,22.4795138 9,21.7440189 C9,21.0088576 9.26042662,20.3810172 9.78107964,19.8601639 C10.3019996,19.339244 10.9300403,19.0788173 11.6652683,19.0788173 Z M16.5665881,33.0786505 C16.5665881,33.6097152 16.4696122,34.0998672 16.2756604,34.5493735 C16.0816419,34.9988129 15.8162764,35.3917221 15.4791634,35.7287684 C15.1423174,36.0656144 14.7439354,36.3313136 14.2843512,36.5252654 C13.8249672,36.7192171 13.3397541,36.816193 12.8293125,36.816193 C12.2982478,36.816193 11.8080958,36.7192171 11.3589233,36.5252654 C10.909417,36.3313136 10.5163077,36.0656144 10.1794616,35.7287684 C9.84234865,35.3917221 9.57698313,34.998546 9.38296462,34.5493735 C9.18901286,34.0998672 9.09203698,33.6097152 9.09203698,33.0786505 C9.09203698,32.5684759 9.18901286,32.0832628 9.38296462,31.6239455 C9.57698313,31.1640276 9.84234865,30.7659126 10.1794616,30.4290665 C10.5163077,30.0919536 10.909417,29.826588 11.3589233,29.6326363 C11.8080958,29.4386178 12.2982478,29.3413749 12.8293125,29.3413749 C13.3397541,29.3413749 13.8249672,29.4386178 14.2843512,29.6326363 C14.7439354,29.826588 15.1423174,30.0919536 15.4791634,30.4290665 C15.8162764,30.7659126 16.0816419,31.1642946 16.2756604,31.6239455 C16.4696122,32.0832628 16.5665881,32.568209 16.5665881,33.0786505 Z" id="004-rss-symbol" fill="#FFFFFF"></path>
    </g>
</svg>