<?xml version="1.0" encoding="UTF-8"?>
<svg width="46px" height="46px" viewBox="0 0 46 46" version="1.1" xmlns="http://www.w3.org/2000/svg" xmlns:xlink="http://www.w3.org/1999/xlink">
    <!-- Generator: Sketch 52.5 (67469) - http://www.bohemiancoding.com/sketch -->
    <title>ruby_gems</title>
    <desc>Created with Sketch.</desc>
    <defs>
        <polygon id="path-1" points="0.0045751634 0.0482679739 35 0.0482679739 35 28.2414924 0.0045751634 28.2414924"></polygon>
    </defs>
    <g id="ruby_gems" stroke="none" stroke-width="1" fill="none" fill-rule="evenodd">
        <g id="013-diamond" transform="translate(6.000000, 9.000000)">
            <mask id="mask-2" fill="white">
                <use xlink:href="#path-1"></use>
            </mask>
            <g id="Clip-2"></g>
            <path d="M15.1867974,0.898028322 L15.917146,0.0482679739 L7.93264706,0.0482679739 L0,9.19470588 L8.05091503,9.19470588 L15.1867974,0.898028322 Z M9.9622658,9.19562092 L25.0421569,9.19562092 L17.5029739,0.427167756 L12.3052832,6.47042484 L9.9622658,9.19562092 Z M0.0965359477,10.6444227 L15.0885076,26.4203486 L7.91899782,10.6444227 L0.0965359477,10.6444227 Z M25.4960893,10.6432026 L24.1896514,10.6432026 L18.6964815,10.6444227 L9.50802832,10.6444227 L17.4550109,28.1300871 L17.5062527,28.2414924 L25.0782244,11.5666231 L25.4960893,10.6432026 Z M19.9341394,26.3980065 L34.9023203,10.6450327 L27.0864161,10.6450327 L19.9341394,26.3980065 Z M35,9.19470588 L27.0646841,0.0482679739 L19.0858279,0.0482679739 L26.9514488,9.19470588 L35,9.19470588 Z" id="Fill-1" fill="#FFFFFF" mask="url(#mask-2)"></path>
        </g>
    </g>
</svg>