<?xml version="1.0" encoding="UTF-8"?>
<svg width="46px" height="46px" viewBox="0 0 46 46" version="1.1" xmlns="http://www.w3.org/2000/svg" xmlns:xlink="http://www.w3.org/1999/xlink">
    <!-- Generator: Sketch 52.5 (67469) - http://www.bohemiancoding.com/sketch -->
    <title>text_editors</title>
    <desc>Created with Sketch.</desc>
    <g id="text_editors" stroke="none" stroke-width="1" fill="none" fill-rule="evenodd">
        <path d="M28.0951276,34.1877376 C27.1509602,34.1877376 26.3264551,33.9694427 25.6218097,33.5324579 C25.0718764,33.2081256 24.7061756,32.7854569 24.5230291,32.2639581 C24.3247766,31.7564792 24.2264402,30.5442563 24.2264402,28.6271906 L24.2264402,20.297428 L31.9216567,20.297428 L31.9216567,15.2027941 L24.2264402,15.2027941 L24.2264402,7 L19.5961396,7 C19.3847559,8.66293133 19.0044429,10.0440835 18.4549045,11.1439502 C17.9049711,12.2293035 17.1790986,13.1594511 16.2769907,13.9342943 C15.3749815,14.6960063 14.2827171,15.2876043 13,15.710273 L13,20.2982179 L16.5940169,20.2982179 L16.5940169,31.6931925 C16.5940169,33.2012144 16.7495187,34.3362295 17.0591401,35.0971516 C17.355334,35.8584687 17.9122772,36.5981636 18.7294762,37.3170262 C19.5749124,38.0216715 20.5475144,38.5503776 21.64669,38.9021573 C22.7886163,39.2827665 24.0991756,39.4733179 25.5793553,39.4733179 C26.9322703,39.4733179 28.1514045,39.339142 29.2366589,39.0714815 C30.3076961,38.8319593 31.5622748,38.3737473 33,37.6969443 L33,32.5805894 C31.3790295,33.6524164 29.7442366,34.1877376 28.0951276,34.1877376 Z" id="Fill-1" fill="#FFFFFF"></path>
    </g>
</svg>