<?xml version="1.0" encoding="UTF-8"?>
<svg width="46px" height="46px" viewBox="0 0 46 46" version="1.1" xmlns="http://www.w3.org/2000/svg" xmlns:xlink="http://www.w3.org/1999/xlink">
    <!-- Generator: Sketch 52.5 (67469) - http://www.bohemiancoding.com/sketch -->
    <title>translation</title>
    <desc>Created with Sketch.</desc>
    <defs>
        <polygon id="path-1" points="0.0778125 0.01953125 15.859375 0.01953125 15.859375 24.6828125 0.0778125 24.6828125"></polygon>
    </defs>
    <g id="translation" stroke="none" stroke-width="1" fill="none" fill-rule="evenodd">
        <g id="006-language" transform="translate(8.000000, 8.000000)">
            <polygon id="Fill-1" fill="#FFFFFF" points="8.12742188 8.02734375 7.75148438 8.02734375 7.04835938 11.5429688 8.83054688 11.5429688"></polygon>
            <g id="Group-5" transform="translate(14.140625, 5.312500)">
                <mask id="mask-2" fill="white">
                    <use xlink:href="#path-1"></use>
                </mask>
                <g id="Clip-3"></g>
                <path d="M8.20554687,9.74609375 C8.58492187,10.7657031 9.0896875,11.5908594 9.6484375,12.293125 C10.2071875,11.5908594 10.7705469,10.7653906 11.1499219,9.74609375 L8.20554687,9.74609375 Z" id="Fill-2" fill="#FFFFFF" mask="url(#mask-2)"></path>
                <path d="M13.2226562,0.01953125 L2.30773438,0.01953125 L4.5834375,18.281875 C4.62375,19.0289062 4.41953125,19.7320312 3.9321875,20.2825781 L0.0778125,24.6875 L13.2226562,24.6875 C14.6764844,24.6875 15.859375,23.5046094 15.859375,22.0507812 L15.859375,2.71484375 C15.859375,1.26101563 14.6764844,0.01953125 13.2226562,0.01953125 Z M13.2226562,9.74609375 L12.9879687,9.74609375 C12.4878125,11.3507031 11.6946094,12.6061719 10.8707031,13.5958594 C11.5160937,14.1860937 12.2067187,14.6703906 12.8930469,15.2127344 C13.2714844,15.5157812 13.3334375,16.0684375 13.0294531,16.4477344 C12.7270312,16.8264844 12.1722656,16.8878125 11.7944531,16.5841406 C11.0485938,15.9954688 10.3485156,15.5026562 9.6484375,14.8602344 C8.94835937,15.5026562 8.306875,15.9954688 7.56101563,16.5841406 C7.18320312,16.8878125 6.6284375,16.8264844 6.32601563,16.4477344 C6.02203125,16.0684375 6.08398438,15.5157812 6.46242187,15.2127344 C7.14875,14.6703906 7.78078125,14.1860937 8.42617188,13.5958594 C7.60226563,12.6061719 6.86765625,11.3507031 6.3675,9.74609375 L6.1328125,9.74609375 C5.64695313,9.74609375 5.25390625,9.35304688 5.25390625,8.8671875 C5.25390625,8.38132812 5.64695313,7.98828125 6.1328125,7.98828125 L8.76953125,7.98828125 L8.76953125,7.109375 C8.76953125,6.62351563 9.16257812,6.23046875 9.6484375,6.23046875 C10.1342969,6.23046875 10.5273438,6.62351563 10.5273438,7.109375 L10.5273438,7.98828125 L13.2226562,7.98828125 C13.7085156,7.98828125 14.1015625,8.38132812 14.1015625,8.8671875 C14.1015625,9.35304688 13.7085156,9.74609375 13.2226562,9.74609375 Z" id="Fill-4" fill="#FFFFFF" mask="url(#mask-2)"></path>
            </g>
            <path d="M14.3063281,2.30953125 C14.1424219,0.993046875 13.0172656,0 11.6903906,0 L2.63671875,0 C1.18289062,0 0,1.18289063 0,2.63671875 L0,22.0898438 C0,23.5436719 1.18289062,24.7265625 2.63671875,24.7265625 C7.8909375,24.7265625 11.6705469,24.7265625 16.4971875,24.7265625 C16.7535156,24.4335938 16.9683594,24.2498438 16.9775,23.8675 C16.9796875,23.7713281 14.3182031,2.40476563 14.3063281,2.30953125 Z M10.7778906,16.7992969 C10.311875,16.8951562 9.83976562,16.5927344 9.74367188,16.1099219 L9.18210937,13.3007812 L6.69710938,13.3007812 L6.13523438,16.1099219 C6.0409375,16.5853906 5.58257813,16.8978906 5.10101563,16.7992969 C4.62554688,16.7040625 4.31640625,16.2414844 4.41164063,15.7650781 L6.16945313,6.97601563 C6.25179687,6.56554687 6.61257812,6.26953125 7.03125,6.26953125 L8.84765625,6.26953125 C9.26632812,6.26953125 9.62710937,6.56554687 9.70945312,6.97601563 L11.4672656,15.7650781 C11.5625,16.2414844 11.2536719,16.7040625 10.7778906,16.7992969 Z" id="Fill-6" fill="#FFFFFF"></path>
            <path d="M10.2691406,26.484375 L10.4199219,27.6904688 C10.520625,28.4978906 11.0571094,29.32125 11.9396875,29.7326562 C13.605625,27.8988281 12.5976562,29.0082031 14.8904688,26.484375 L10.2691406,26.484375 Z" id="Fill-7" fill="#FFFFFF"></path>
        </g>
    </g>
</svg>