<?xml version="1.0" encoding="UTF-8"?>
<svg width="550px" height="240px" viewBox="0 0 550 240" version="1.1" xmlns="http://www.w3.org/2000/svg" xmlns:xlink="http://www.w3.org/1999/xlink">
    <!-- Generator: Sketch 52.6 (67491) - http://www.bohemiancoding.com/sketch -->
    <title>header_logo</title>
    <desc>Created with Sketch.</desc>
    <g id="header_logo" stroke="none" stroke-width="1" fill="none" fill-rule="evenodd">
        <g id="Group-2" transform="translate(152.000000, 14.000000)" fill="#FFFFFF">
            <g id="Group" transform="translate(0.000000, 145.000000)">
                <path d="M133.999617,0 C136.208178,0 138,1.79182227 138,4.00038303 C138,6.20894379 136.208178,8 133.999617,8 C131.791056,8 130,6.20894379 130,4.00038303 C130,1.79182227 131.791056,0 133.999617,0" id="Fill-4"></path>
                <path d="M54,29.1612174 C54,23.3455678 53.0592704,19.030196 51.1778111,16.2181176 C49.295595,13.4052853 46.3999944,12 42.4910092,12 C36.2169556,12 31.1984695,15.6293151 27.4340374,22.8879454 C27.0473014,19.5707484 25.8416841,16.9275454 23.8156718,14.9560749 C21.7881459,12.9853583 19.1824081,12 15.9977015,12 C13.0052277,12 10.2428277,12.8903658 7.70898796,14.667328 C5.17590503,16.4465519 3.08783339,18.9706373 1.44855713,22.2388303 L1.44855713,12.5767399 L0,12.5767399 L0,50 L1.44855713,50 L1.44855713,26.349139 C1.97833247,24.4266725 2.72607251,22.6715737 3.69177727,21.0853504 C4.6567252,19.4983731 5.77909209,18.1405841 7.05812112,17.0112293 C8.33639332,15.8818745 9.75997533,15.0043251 11.3288671,14.379335 C12.8962453,13.7550988 14.5499012,13.4422268 16.2868075,13.4422268 C19.7613769,13.4422268 22.2952166,14.7042695 23.8875699,17.227601 C25.4799232,19.7516864 26.2760998,23.7293072 26.2760998,29.1612174 L26.2760998,50 L27.7239002,50 L27.7239002,26.4215142 C28.2059957,24.5465439 28.9181651,22.8163241 29.8596516,21.2293469 C30.8003812,19.6431236 31.9098821,18.273272 33.1889112,17.1190382 C34.4671834,15.9655583 35.8915222,15.0638838 37.4596572,14.4155226 C39.0277922,13.7664074 40.7049095,13.4422268 42.4910092,13.4422268 C45.9655786,13.4422268 48.5100139,14.7155781 50.1280991,17.2637886 C51.7439139,19.811999 52.5529565,23.7775573 52.5529565,29.1612174 L52.5529565,50 L54,50 L54,29.1612174" id="Fill-5"></path>
                <path d="M66.4228759,47.4186453 C65.2245069,46.960952 64.1863804,46.3337989 63.3069631,45.5379423 C62.4275458,44.7420857 61.7421064,43.7896299 61.2537116,42.6790619 C60.7645501,41.570007 60.5199693,40.3890829 60.5199693,39.13402 C60.5199693,37.8797137 60.8251202,36.7351024 61.4369555,35.6971601 C62.0472573,34.6607309 62.9151739,33.7801443 64.0407054,33.0569134 C65.1639367,32.3314129 66.5079808,31.7655377 68.0736042,31.3555051 C69.6369276,30.9462291 71.3735276,30.7404562 73.2803374,30.7404562 C75.3335889,30.7404562 77.3132362,30.9099162 79.2192793,31.2473231 C81.1268558,31.58473 82.9600613,32.0915968 84.7196626,32.7664106 L84.7196626,39.4237663 C84.7196626,40.3406657 84.3278734,41.3052258 83.5465951,42.318203 C82.2746219,44.0544111 80.4544504,45.4539688 78.0837806,46.5153631 C75.7115773,47.5760009 73.1085941,48.1063198 70.2732976,48.1063198 C68.903952,48.1063198 67.6204781,47.8778515 66.4228759,47.4186453 Z M78.4134662,49.1919227 C81.1506238,47.98679 83.4001533,46.2498254 85.1597547,43.9817854 L85.1597547,47.0933426 C85.2563602,48.0102421 85.5998467,48.7932379 86.1863804,49.4453561 C86.7729142,50.0959614 87.5541925,50.4220205 88.5332822,50.4220205 C88.7280268,50.4220205 88.9603401,50.4091597 89.2294556,50.3857076 C89.4978044,50.3614991 89.7546525,50.3251862 90,50.2767691 L90,47.0214735 C88.9243047,47.0214735 88.3860737,46.4185289 88.3860737,45.2126397 L88.3860737,26.8337989 C88.3860737,22.2023976 87.0665644,18.5733822 84.4260124,15.9437267 C81.7862271,13.3155843 78.1681188,12 73.5732209,12 C69.1730675,12 64.5283334,13.6408869 59.640552,16.9196345 L61.0336656,19.3798301 C63.1842894,17.9333682 65.2988778,16.8235568 67.3766641,16.0519088 C69.4544504,15.2810172 71.4218303,14.8951932 73.2803374,14.8951932 C76.79954,14.8951932 79.5873005,15.9437267 81.640552,18.0415503 C83.6930369,20.1401304 84.7196626,22.9748021 84.7196626,26.5440526 L84.7196626,30.2343459 C83.0566669,29.6079493 81.1874259,29.1124302 79.1096396,28.7508147 C77.0310866,28.3899558 74.9671011,28.2083915 72.9130829,28.2083915 C70.5661811,28.2083915 68.4147905,28.48679 66.4604447,29.0398045 C64.5045654,29.5950885 62.830069,30.367493 61.4369555,31.3555051 C60.0438419,32.3450303 58.9551126,33.5153631 58.1738343,34.8649907 C57.3910225,36.2153748 57,37.7125233 57,39.3511406 C57,40.9920275 57.3174183,42.5232193 57.9537882,43.9454725 C58.5886248,45.3699953 59.4810762,46.5993366 60.6303757,47.6357658 C61.7781418,48.6737081 63.1106852,49.4937733 64.6264724,50.0959614 C66.141493,50.698906 67.779954,51 69.540322,51 C72.7175716,51 75.6747752,50.3970554 78.4134662,49.1919227 Z" id="Fill-6"></path>
                <path d="M93.1839172,51 C93.1839172,51 98.5190225,50.4940851 100.825525,49.4830103 C103.132781,48.4719356 105.115166,47.0870878 106.773436,45.3307324 C108.430952,43.5728669 109.717618,41.5137176 110.629666,39.15555 C111.543222,36.7958721 112,34.2919708 112,31.6446011 C112,28.9473949 111.531916,26.4193305 110.59424,24.0611628 C109.657317,21.701485 108.348038,19.6196829 106.665648,17.8134911 C104.983259,16.0088095 102.988813,14.5877171 100.680803,13.5532343 C98.3750545,12.5187516 93.1115563,12 93.1115563,12 L93,16.332746 C93,16.332746 96.9685405,16.7306821 98.62681,17.525044 C100.28508,18.319406 101.738327,19.40297 102.988813,20.7749811 C104.238545,22.1469922 105.223708,23.7727158 105.944301,25.6498867 C106.665648,27.5278127 107.025191,29.525044 107.025191,31.6446011 C107.025191,33.8109741 106.676955,35.8082054 105.979728,37.6378052 C105.284008,39.4681601 104.321458,41.0440473 103.0966,42.3692424 C101.870988,43.6929273 100.429047,44.7394916 98.770778,45.5104455 C97.1132622,46.2806443 93.2359265,46.6664989 93.2359265,46.6664989 L93.1839172,51" id="Fill-7"></path>
                <path d="M126.979649,12 C126.979649,12 121.481731,12.5051598 119.174475,13.5162346 C116.867219,14.5280644 114.884834,15.9121571 113.226564,17.6692676 C111.569048,19.4271331 110.282382,21.4855273 109.36958,23.8436949 C108.456024,26.2033728 108,28.7072741 108,31.3553989 C108,34.0526051 108.468838,36.5799144 109.40576,38.9380821 C110.343436,41.2977599 111.651962,43.379562 113.335105,45.1857538 C115.016741,46.9904354 117.011941,48.4122829 119.318443,49.4467657 C121.625699,50.4812484 126.888444,51 126.888444,51 L127,46.6664989 C127,46.6664989 123.03146,46.2685628 121.373944,45.474956 C119.715674,44.6798389 118.26092,43.5962749 117.011941,42.2242638 C115.761455,40.8522527 114.777046,39.2272842 114.056453,37.3493582 C113.335105,35.4714322 112.974055,33.4742009 112.974055,31.3553989 C112.974055,29.1882708 113.323045,27.1910395 114.019518,25.3606846 C114.715992,23.5318399 115.677788,21.9551976 116.9034,20.6300025 C118.129766,19.3063176 119.570953,18.2597533 121.229222,17.4887994 C122.887492,16.7186006 126.927639,16.3335011 126.927639,16.3335011 L126.979649,12" id="Fill-8"></path>
                <polygon id="Fill-9" points="131 50 137 50 137 13 131 13"></polygon>
                <path d="M162.341476,42.3233588 C161.861476,42.5613195 161.116986,42.8691811 160.108006,43.2469437 C159.099027,43.6276808 158.041068,43.8173057 156.937143,43.8173057 C155.830958,43.8173057 154.906374,43.5213421 154.161884,42.9279277 C153.417394,42.3352568 152.99617,41.3759779 152.901224,40.0471162 L152.901224,19.2790981 L161.116986,19.2790981 L161.116986,13.2334097 L152.901224,13.2334097 L152.901224,1 L144.973312,1 L144.973312,13.2334097 L140,13.2334097 L140,19.2790981 L144.973312,19.2790981 L144.973312,42.5367798 C144.973312,44.0537791 145.212936,45.346203 145.693689,46.4118207 C146.172936,47.4796692 146.833783,48.3452512 147.675479,49.0093102 C148.515667,49.6733692 149.488477,50.1715994 150.594662,50.5017698 C151.698587,50.8341712 152.875604,51 154.125714,51 C156.144427,51 158.041068,50.7032928 159.820157,50.1113656 C161.596986,49.5194384 162.99102,48.9847705 164,48.5118237 L162.341476,42.3233588" id="Fill-10"></path>
                <path d="M183.922471,50.2142466 C186.553695,49.0237444 188.755898,47.1648231 190.527537,44.6367207 L190.748992,46.9697088 C191.339281,50.2256791 193.74905,51.8536643 197.981385,51.8536643 C198.620286,51.8536643 199.334034,51.8170803 200.121086,51.7446746 C200.908139,51.6715067 201.867262,51.5129764 203,51.2713699 L203,41.4287669 C202.064797,41.3319719 201.41355,41.0537815 201.043944,40.5911472 C200.675109,40.1300371 200.490692,39.3160446 200.490692,38.1491694 L200.490692,13 L188.682594,13 L188.682594,36.6187415 C187.549856,38.659058 186.247362,40.0934532 184.771253,40.9196404 C183.295145,41.7458276 181.769652,42.1581591 180.194776,42.1581591 C178.472521,42.1581591 177.143791,41.5385187 176.210131,40.3 C175.274157,39.059957 174.808098,37.2734415 174.808098,34.9419777 L174.808098,13 L163,13 L163,37.4929451 C163,42.2564784 164.01931,45.8653312 166.062559,48.3179793 C168.103494,50.7729138 171.117441,52 175.102085,52 C178.349062,52 181.289705,51.4039867 183.922471,50.2142466" id="Fill-11"></path>
                <path d="M220.584241,39.1704658 C219.214464,38.0654253 218.173402,36.672441 217.463442,34.9884979 L217.463442,28.4283561 C219.340219,25.8338475 221.624507,24.5350856 224.314714,24.5350856 C226.700083,24.5350856 228.61586,25.2564525 230.062841,26.6976786 C231.509026,28.1396586 232.231721,30.0633035 232.231721,32.4655983 C232.231721,33.6196346 232.041496,34.7005542 231.661047,35.7098647 C231.279802,36.7191753 230.772005,37.6093887 230.138454,38.3774899 C229.50331,39.1470986 228.741616,39.7478608 227.854166,40.1805302 C226.96592,40.6124457 225.989327,40.8287804 224.924388,40.8287804 C223.400999,40.8287804 221.954814,40.2770139 220.584241,39.1704658 Z M236.723093,50.8864585 C238.803625,49.9020226 240.606382,48.5188375 242.128975,46.740672 C243.650772,44.9632602 244.842263,42.8602158 245.706631,40.4322925 C246.568612,38.0051229 247,35.3744329 247,32.5379612 C247,29.7504851 246.530408,27.1559765 245.592019,24.7514203 C244.652835,22.3491255 243.371405,20.2815087 241.74773,18.551585 C240.122463,16.8209076 238.169278,15.4641047 235.886582,14.4781613 C233.602294,13.4937255 231.13972,13 228.50284,13 C225.457653,13 222.893998,13.5540278 220.813466,14.6590684 C218.731341,15.7641089 216.980319,17.3508145 215.560399,19.41617 L215.560399,13.7213669 L203,13.7213669 L203,67 L217.463442,67 L217.463442,46.0193051 C218.630259,48.0869219 220.2802,49.6600595 222.410875,50.7424866 C224.543142,51.82416 227.055859,52.3638661 229.948229,52.3638661 C232.384537,52.3638661 234.641764,51.8708943 236.723093,50.8864585 Z" id="Fill-12"></path>
            </g>
            <path d="M162.738333,107.971621 C162.738333,107.971621 150.26486,106.737481 144.801449,104.271279 C139.332544,101.802307 134.606744,98.4175945 130.619931,94.1122953 C127.65506,90.9110077 125.180557,87.3442542 123.192301,83.4113427 C121.205419,87.5325246 118.690395,91.2266374 115.637615,94.4846829 C111.705745,98.6736975 107.008791,101.973273 101.541259,104.384102 C96.0757872,106.795624 83.434051,108 83.434051,108 L83.5590467,97.6686663 C83.5590467,97.6686663 92.7441709,96.748772 96.6732942,94.915905 C100.603791,93.0788851 104.018509,90.5808425 106.922942,87.4273147 C109.828749,84.2682495 112.107517,80.5076883 113.755812,76.1483998 C115.407541,71.7863427 116.233749,67.0242111 116.233749,61.8585442 C116.233749,56.8057011 115.378696,52.045646 113.672024,47.5693808 C111.964665,43.0896547 109.630267,39.2169619 106.66883,35.9478416 C103.708767,32.6745683 100.262457,30.0941575 96.3340201,28.1989952 C92.4021497,26.303833 83,25.3583284 83,25.3583284 L83.2623536,15.0269946 C83.2623536,15.0269946 95.7344528,16.2625186 101.199924,18.7287213 C106.66883,21.1949241 111.394629,24.5830976 115.378696,28.8870125 C118.347,32.0883001 120.82013,35.6571301 122.808386,39.5893495 C124.795268,35.4667833 127.308918,31.7719783 130.362385,28.5153171 C134.294255,24.3269946 138.991896,21.0267267 144.456681,18.6152054 C149.924213,16.2043763 162.952612,15 162.952612,15 L162.83105,25.3299494 C162.83105,25.3299494 153.255829,26.2491515 149.326019,28.084095 C145.399643,29.9211149 141.981491,32.4191575 139.077745,35.575454 C136.173311,38.733827 133.89317,42.4902352 132.243501,46.8522923 C130.593146,51.2150417 129.766938,55.9757889 129.766938,61.142148 C129.766938,66.1942989 130.619931,70.9550461 132.32935,75.4326957 C134.035335,79.9082688 136.369046,83.7830381 139.332544,87.0521584 C142.29398,90.3254317 145.737543,92.9065347 149.66804,94.8016969 C153.595103,96.6940905 163,97.6437481 163,97.6437481 L162.738333,107.971621 Z M61,125 L186,125 L186,0 L61,0 L61,125 Z" id="Fill-1"></path>
        </g>
    </g>
</svg>