<?xml version="1.0" encoding="UTF-8"?>
<svg width="30px" height="30px" viewBox="0 0 30 30" version="1.1" xmlns="http://www.w3.org/2000/svg" xmlns:xlink="http://www.w3.org/1999/xlink">
    <!-- Generator: Sketch 52.5 (67469) - http://www.bohemiancoding.com/sketch -->
    <title>checkmark</title>
    <desc>Created with Sketch.</desc>
    <g id="Page-1" stroke="none" stroke-width="1" fill="none" fill-rule="evenodd">
        <g id="Desktop-HD" transform="translate(-521.000000, -328.000000)">
            <g id="checkmark" transform="translate(521.000000, 328.000000)">
                <circle id="Oval" fill="#252831" cx="15" cy="15" r="15"></circle>
                <path d="M15,0 C6.72948416,0 0,6.72948416 0,15 C0,23.2705158 6.72948416,30 15,30 C23.2705158,30 30,23.2705158 30,15 C30,6.72948416 23.2705158,0 15,0 Z M23.3606557,9.99687515 L14.1324936,20.3802702 C13.9038989,20.6362675 13.5858853,20.7689534 13.2671506,20.7689534 C13.0140378,20.7689534 12.7602038,20.6845825 12.5460314,20.5151195 L6.77707803,15.901399 C6.28166915,15.5040623 6.20018268,14.7771742 6.59968271,14.2788808 C6.99701937,13.7798664 7.7239075,13.7012644 8.21931638,14.098601 L13.1323013,18.0279794 L21.6364598,8.46161242 C22.0590356,7.98567377 22.7888082,7.94384885 23.2647469,8.36642469 C23.7406855,8.79116389 23.7853949,9.52093649 23.3606557,9.99687515 Z" id="success" fill="#FFFFFF"></path>
            </g>
        </g>
    </g>
</svg>