<?xml version="1.0" encoding="UTF-8"?>
<svg width="46px" height="46px" viewBox="0 0 46 46" version="1.1" xmlns="http://www.w3.org/2000/svg" xmlns:xlink="http://www.w3.org/1999/xlink">
    <!-- Generator: Sketch 52.5 (67469) - http://www.bohemiancoding.com/sketch -->
    <title>homebrew_packages</title>
    <desc>Created with Sketch.</desc>
    <g id="homebrew_packages" stroke="none" stroke-width="1" fill="none" fill-rule="evenodd">
        <g id="012-drink-beer-jar" transform="translate(8.000000, 5.000000)" fill="#FFFFFF">
            <path d="M25.9157333,15.0250667 L24.4586667,15.0250667 C24.1578667,15.0250667 23.8677333,15.0506667 23.584,15.1082667 L23.584,11.8165333 C23.584,11.6330667 23.5584,11.4581333 23.5242667,11.2917333 C24.4842667,10.5834667 25.1157333,9.45066667 25.1157333,8.17493333 C25.1157333,5.792 22.9162667,3.87413333 20.4992,4.3584 C19.6992,3.51573333 18.5578667,3.04213333 17.3824,3.09973333 C16.6421333,2.016 15.392,1.34186667 14.0586667,1.34186667 C12.9834667,1.34186667 11.9573333,1.7664 11.2085333,2.51733333 C11.008,2.432 10.8074667,2.36586667 10.6005333,2.32533333 L10.3338667,2.2656 C10.1333333,2.24213333 9.9328,2.21653333 9.72586667,2.21653333 C9.42506667,2.19093333 9.1328,2.19093333 8.84266667,2.21653333 L8.76586667,2.21653333 L8.76586667,2.22506667 C7.05066667,2.4 5.6,3.41546667 5.03253333,4.832 C3.3408,5.1584 2.0672,6.64106667 2.0672,8.416 C2.0672,9.6576 2.69226667,10.7498667 3.63306667,11.4069333 C3.616,11.5413333 3.59253333,11.6736 3.59253333,11.8165333 L3.59253333,31.5072 C3.59253333,32.9578667 4.7744,34.1333333 6.21653333,34.1333333 L20.9493333,34.1333333 C22.4,34.1333333 23.584,32.9578667 23.584,31.5072 L23.584,27.4837333 C23.8677333,27.5413333 24.1578667,27.5669333 24.4586667,27.5669333 L25.9157333,27.5669333 C28.5674667,27.5669333 30.7328,25.408 30.7328,22.7584 L30.7328,19.8421333 C30.7328,17.184 28.5674667,15.0250667 25.9157333,15.0250667 Z M21.824,31.5072 C21.824,31.9914667 21.4421333,32.384 20.9493333,32.384 L6.21653333,32.384 C5.7408,32.384 5.34186667,31.9914667 5.34186667,31.5072 L5.34186667,11.8165333 C5.34186667,11.3322667 5.7408,10.9418667 6.21653333,10.9418667 L20.9493333,10.9418667 C21.4421333,10.9418667 21.824,11.3322667 21.824,11.8165333 L21.824,31.5072 Z M22.6090667,9.792 C22.1589333,9.41653333 21.5829333,9.184 20.9493333,9.184 L6.21653333,9.184 C5.55093333,9.184 4.94933333,9.44213333 4.49066667,9.8496 C4.07466667,9.50826667 3.81653333,8.992 3.81653333,8.416 C3.81653333,7.37493333 4.6592,6.52373333 5.70026667,6.52373333 L6.41706667,6.51733333 L6.55786667,5.81546667 C6.72426667,4.992 7.57546667,4.12373333 8.8832,3.9744 L9.8496,3.9744 C10.2421333,4 10.6176,4.12373333 10.9504,4.34986667 L11.6757333,4.8256 L12.1578667,4.1088 C12.5824,3.4752 13.2992,3.0912 14.0672,3.0912 C14.9504,3.0912 15.7418667,3.59893333 16.1322667,4.40746667 L16.4245333,5.024 L17.1008,4.89173333 C18.0074667,4.70826667 18.9418667,5.09226667 19.4581333,5.84106667 L19.8421333,6.40853333 L20.4842667,6.17386667 C20.7424,6.08213333 20.9834667,6.03306667 21.2245333,6.03306667 C22.4,6.03306667 23.3664,6.99093333 23.3664,8.17493333 C23.3664,8.8256 23.0656,9.39946667 22.6090667,9.792 Z M28.1002667,22.7584 C28.1002667,23.9573333 27.1253333,24.9408 25.9157333,24.9408 L24.4586667,24.9408 C24.1408,24.9408 23.8506667,24.8746667 23.584,24.7573333 L23.584,17.8325333 C23.8506667,17.7173333 24.1408,17.6490667 24.4586667,17.6490667 L25.9157333,17.6490667 C27.1253333,17.6490667 28.1002667,18.6325333 28.1002667,19.8421333 L28.1002667,22.7584 Z" id="Fill-1"></path>
            <polygon id="Fill-2" points="6.21653333 31.5093333 20.9578667 31.5093333 20.9578667 14.1504 6.21653333 14.1504"></polygon>
        </g>
    </g>
</svg>