<?xml version="1.0" encoding="UTF-8"?>
<svg width="500px" height="128px" viewBox="0 0 500 128" version="1.1" xmlns="http://www.w3.org/2000/svg" xmlns:xlink="http://www.w3.org/1999/xlink">
    <!-- Generator: Sketch 52.6 (67491) - http://www.bohemiancoding.com/sketch -->
    <title>mobile_logo</title>
    <desc>Created with Sketch.</desc>
    <g id="mobile_logo" stroke="none" stroke-width="1" fill="none" fill-rule="evenodd">
        <g id="Group" transform="translate(45.000000, 8.000000)" fill="#FFFFFF">
            <path d="M222.499378,0 C226.088289,0 229,2.91171119 229,6.50062243 C229,10.0895337 226.088289,13 222.499378,13 C218.910466,13 216,10.0895337 216,6.50062243 C216,2.91171119 218.910466,0 222.499378,0" id="Fill-4"></path>
            <path d="M91,48.9031029 C91,39.1083247 89.4146964,31.8403301 86.2440891,27.1041981 C83.0722064,22.3667963 78.1925831,20 71.6052193,20 C61.0322771,20 52.5751987,26.1125308 46.2314333,38.3375923 C45.5797116,32.7507341 43.5480232,28.2990239 40.1338173,24.9786525 C36.7170607,21.6595508 32.3259099,20 26.9590896,20 C21.916217,20 17.2610615,21.4995635 12.9910723,24.4923419 C8.72235848,27.4889295 5.20357108,31.7400206 2.44108702,37.2443457 L2.44108702,20.9713515 L0,20.9713515 L0,84 L2.44108702,84 L2.44108702,44.1669709 C3.33385657,40.9291326 4.59393702,37.9731767 6.22132836,35.3016427 C7.84744432,32.628839 9.73884038,30.3420363 11.8942411,28.4399651 C14.0483665,26.5378938 16.4473658,25.0599159 19.0912391,24.007301 C21.7325616,22.9559559 24.5192779,22.4290136 27.4462867,22.4290136 C33.3015795,22.4290136 37.5715687,24.5545592 40.2549789,28.8043806 C42.9383891,33.0554718 44.2800942,39.7546226 44.2800942,48.9031029 L44.2800942,84 L46.7199058,84 L46.7199058,44.288866 C47.5323261,41.1310213 48.7324635,38.2169669 50.3190425,35.5441632 C51.9043461,32.8726292 53.7740606,30.5655107 55.9294614,28.621538 C58.0835868,26.678835 60.4838615,25.1602254 63.1264593,24.0682486 C65.7690572,22.975002 68.5953105,22.4290136 71.6052193,22.4290136 C77.4605121,22.4290136 81.7483567,24.5736053 84.47513,28.8653281 C87.1980771,33.157051 88.5614637,39.835886 88.5614637,48.9031029 L88.5614637,84 L91,84 L91,48.9031029" id="Fill-5"></path>
            <path d="M110.704793,79.0310754 C108.707511,78.2682534 106.977301,77.2229981 105.511605,75.8965705 C104.04591,74.5701428 102.903511,72.9827165 102.089519,71.1317699 C101.27425,69.283345 100.866616,67.3151381 100.866616,65.2233667 C100.866616,63.1328561 101.3752,61.2251707 102.394926,59.4952669 C103.412095,57.7678849 104.858623,56.3002405 106.734509,55.0948557 C108.606561,53.8856882 110.846635,52.9425628 113.456007,52.2591752 C116.061546,51.5770484 118.955879,51.2340937 122.133896,51.2340937 C125.555982,51.2340937 128.855394,51.516527 132.032132,52.0788718 C135.211426,52.6412166 138.266769,53.4859947 141.199438,54.6106844 L141.199438,65.7062772 C141.199438,67.2344429 140.546456,68.842043 139.244325,70.5303383 C137.12437,73.4240185 134.090751,75.7566147 130.139634,77.5256052 C126.185962,79.2933349 121.847657,80.1771997 117.122163,80.1771997 C114.83992,80.1771997 112.700797,79.7964191 110.704793,79.0310754 Z M130.68911,81.9865379 C135.25104,79.9779834 139.000256,77.0830424 141.932924,73.3029756 L141.932924,78.4889044 C142.093934,80.0170701 142.666411,81.3220632 143.643967,82.4089269 C144.621524,83.4932689 145.923654,84.0367008 147.55547,84.0367008 C147.880045,84.0367008 148.267234,84.0152661 148.715759,83.9761794 C149.163007,83.9358318 149.591088,83.8753104 150,83.7946151 L150,78.3691224 C148.207175,78.3691224 147.310123,77.3642148 147.310123,75.3543994 L147.310123,44.7229981 C147.310123,37.003996 145.110941,30.955637 140.710021,26.5728779 C136.310378,22.1926404 130.280198,20 122.622035,20 C115.288446,20 107.547222,22.7348115 99.4009201,28.1993909 L101.722776,32.2997168 C105.307149,29.8889471 108.831463,28.0392613 112.29444,26.7531813 C115.757417,25.468362 119.036384,24.825322 122.133896,24.825322 C127.999233,24.825322 132.645501,26.5728779 136.067587,30.0692505 C139.488395,33.5668839 141.199438,38.2913369 141.199438,44.2400877 L141.199438,50.3905765 C138.427778,49.3465821 135.312377,48.5207169 131.849399,47.9180245 C128.385144,47.316593 124.945169,47.0139859 121.521805,47.0139859 C117.610302,47.0139859 114.024651,47.4779834 110.767408,48.3996741 C107.507609,49.3251474 104.716782,50.6124884 102.394926,52.2591752 C100.07307,53.9083838 98.2585209,55.8589385 96.9563904,58.1083178 C95.6517042,60.3589579 95,62.8542055 95,65.5852343 C95,68.3200458 95.5290305,70.8720321 96.5896471,73.2424542 C97.647708,75.6166589 99.135127,77.665561 101.050626,79.392943 C102.96357,81.1228468 105.184475,82.4896221 107.710787,83.4932689 C110.235822,84.4981766 112.96659,85 115.900537,85 C121.195953,85 126.124625,83.9950923 130.68911,81.9865379 Z" id="Fill-6"></path>
            <path d="M155.309755,85 C155.309755,85 164.295196,84.1438363 168.179831,82.4327867 C172.065736,80.7217371 175.404491,78.3781487 178.197366,75.4058549 C180.988971,72.4310054 183.155988,68.9462913 184.69207,64.9555461 C186.23069,60.9622452 187,56.7248737 187,52.2447095 C187,47.6802068 186.211648,43.4019439 184.632404,39.4111987 C183.054429,35.4178977 180.849328,31.8948479 178.015829,28.8382156 C175.18233,25.7841391 171.823263,23.3792135 167.936089,21.6285504 C164.052723,19.8778873 155.187884,19 155.187884,19 L155,26.3323394 C155,26.3323394 161.683858,27.0057697 164.476733,28.3500745 C167.269608,29.6943794 169.717182,31.5281032 171.823263,33.8499681 C173.928076,36.1718329 175.587297,38.9230576 176.800928,42.0998083 C178.015829,45.2778369 178.621375,48.6577668 178.621375,52.2447095 C178.621375,55.9108792 178.034871,59.2908091 176.860594,62.3870549 C175.688856,65.4845786 174.067719,68.1514647 172.0048,70.3941025 C169.940612,72.6341846 167.51208,74.4052934 164.719205,75.7099847 C161.927599,77.0133981 155.39735,77.6663827 155.39735,77.6663827 L155.309755,85" id="Fill-7"></path>
            <path d="M211.965724,19 C211.965724,19 202.706074,19.8548859 198.820169,21.5659354 C194.934264,23.2782629 191.595509,25.6205735 188.802634,28.5941451 C186.011029,31.5689946 183.844012,35.0524308 182.306661,39.0431761 C180.768041,43.036477 180,47.2738485 180,51.7552905 C180,56.3197932 180.789622,60.5967783 182.367596,64.5875235 C183.94684,68.5808244 186.150672,72.1038742 188.985441,75.1605065 C191.81767,78.2145831 195.178006,80.6207865 199.062641,82.3714496 C202.948546,84.1221127 211.812116,85 211.812116,85 L212,77.6663827 C212,77.6663827 205.316142,76.9929524 202.524537,75.6499255 C199.731662,74.3043428 197.281549,72.470619 195.178006,70.1487541 C193.071924,67.8268892 191.413972,65.0769424 190.200341,61.8989138 C188.985441,58.7208852 188.377355,55.3409553 188.377355,51.7552905 C188.377355,48.0878429 188.965129,44.707913 190.138136,41.6103894 C191.311144,38.5154214 192.931011,35.8472574 194.9952,33.6046196 C197.060658,31.3645376 199.48792,29.5934287 202.280795,28.2887374 C205.07367,26.985324 211.878129,26.3336173 211.878129,26.3336173 L211.965724,19" id="Fill-8"></path>
            <polygon id="Fill-9" points="217 84 228 84 228 21 217 21"></polygon>
            <path d="M269.166688,71.24971 C268.346688,71.6542431 267.074851,72.1776079 265.351177,72.8198043 C263.627504,73.4670573 261.820157,73.7894197 259.934286,73.7894197 C258.044553,73.7894197 256.465055,73.2862816 255.193218,72.277477 C253.921381,71.2699366 253.20179,69.6391624 253.039592,67.3800976 L253.039592,32.0744668 L267.074851,32.0744668 L267.074851,21.7967965 L253.039592,21.7967965 L253.039592,1 L239.496075,1 L239.496075,21.7967965 L231,21.7967965 L231,32.0744668 L239.496075,32.0744668 L239.496075,71.6125257 C239.496075,74.1914245 239.905432,76.3885452 240.726719,78.2000952 C241.545432,80.0154377 242.67438,81.486927 244.112276,82.6158274 C245.547598,83.7447277 247.209482,84.591719 249.099215,85.1530087 C250.985086,85.718091 252.995824,86 255.131429,86 C258.580063,86 261.820157,85.4955977 264.859435,84.4893215 C267.894851,83.4830453 270.276327,82.5741099 272,81.7701002 L269.166688,71.24971" id="Fill-10"></path>
            <path d="M305.522078,83.0237444 C309.863597,81.039574 313.497232,77.9413719 316.420436,73.7278679 L316.785837,77.6161814 C317.759814,83.0427985 321.735932,85.7561071 328.719285,85.7561071 C329.773472,85.7561071 330.951156,85.6951339 332.249793,85.5744577 C333.548429,85.4525112 335.130982,85.1882939 337,84.7856166 L337,68.3812781 C335.456915,68.2199531 334.382357,67.7563025 333.772507,66.9852453 C333.163931,66.2167286 332.859642,64.8600743 332.859642,62.9152824 L332.859642,21 L313.37628,21 L313.37628,60.3645691 C311.507263,63.7650967 309.358147,66.1557553 306.922568,67.532734 C304.486989,68.9097127 301.969926,69.5969318 299.371381,69.5969318 C296.529659,69.5969318 294.337256,68.5641978 292.796717,66.5 C291.252358,64.4332617 290.483362,61.4557358 290.483362,57.5699629 L290.483362,21 L271,21 L271,61.8215751 C271,69.7607973 272.681861,75.7755521 276.053222,79.8632988 C279.420764,83.9548564 284.393777,86 290.968441,86 C296.325952,86 301.178013,85.0066445 305.522078,83.0237444" id="Fill-11"></path>
            <path d="M368.37457,65.1020813 C366.164249,63.2398833 364.484353,60.8924469 363.338736,58.0546909 L363.338736,46.9996371 C366.367172,42.6274097 370.053182,40.4387554 374.394197,40.4387554 C378.243316,40.4387554 381.334684,41.6543922 383.669585,44.0831251 C386.003202,46.5131283 387.169368,49.7548263 387.169368,53.803138 C387.169368,55.7479027 386.862415,57.5694524 386.248508,59.2703276 C385.633316,60.9712028 384.813918,62.4713773 383.791596,63.76577 C382.766705,65.0627033 381.537607,66.0750988 380.105586,66.8042267 C378.67228,67.5320845 377.096415,67.8966485 375.377989,67.8966485 C372.919793,67.8966485 370.586176,66.9668197 368.37457,65.1020813 Z M394.416808,84.8456986 C397.774031,83.1867419 400.683025,80.8558188 403.139937,77.8592806 C405.595565,74.8640126 407.518198,71.3199933 408.912973,67.2284929 C410.303896,63.1382627 411,58.7050629 411,53.9250827 C411,49.2276693 410.242249,44.8554419 408.728031,40.8033194 C407.212528,36.7550077 405.144767,33.2706905 402.524746,30.3554488 C399.902156,27.4389369 396.750425,25.1524728 393.066984,23.4909756 C389.380974,21.8320189 385.407275,21 381.15231,21 C376.238486,21 372.101679,21.9336395 368.744456,23.7958375 C365.384664,25.6580354 362.559151,28.3319281 360.267917,31.8124346 L360.267917,22.2156367 L340,22.2156367 L340,112 L363.338736,112 L363.338736,76.6436438 C365.221555,80.127961 367.883959,82.7789891 371.322094,84.6030793 C374.762798,86.4258993 378.817409,87.3354039 383.484642,87.3354039 C387.415958,87.3354039 391.058301,86.5046553 394.416808,84.8456986 Z" id="Fill-12"></path>
        </g>
    </g>
</svg>