<?xml version="1.0" encoding="UTF-8"?>
<svg width="46px" height="46px" viewBox="0 0 46 46" version="1.1" xmlns="http://www.w3.org/2000/svg" xmlns:xlink="http://www.w3.org/1999/xlink">
    <!-- Generator: Sketch 52.5 (67469) - http://www.bohemiancoding.com/sketch -->
    <title>password_management</title>
    <desc>Created with Sketch.</desc>
    <defs>
        <polygon id="path-1" points="0 0 25 0 25 33.328125 0 33.328125"></polygon>
    </defs>
    <g id="password_management" stroke="none" stroke-width="1" fill="none" fill-rule="evenodd">
        <g id="007-lock" transform="translate(11.000000, 6.000000)">
            <mask id="mask-2" fill="white">
                <use xlink:href="#path-1"></use>
            </mask>
            <g id="Clip-2"></g>
            <path d="M24.3055556,12.5 L22.2222222,12.5 L22.2222222,9.72222222 C22.2222222,4.36128472 17.8609375,0 12.5,0 C7.1390625,0 2.77777778,4.36128472 2.77777778,9.72222222 L2.77777778,12.5 L0.694444444,12.5 C0.310590278,12.5 0,12.8105903 0,13.1944444 L0,30.5555556 C0,32.0875 1.24583333,33.3333333 2.77777778,33.3333333 L22.2222222,33.3333333 C23.7541667,33.3333333 25,32.0875 25,30.5555556 L25,13.1944444 C25,12.8105903 24.6894097,12.5 24.3055556,12.5 Z M14.5792535,27.006684 C14.6009549,27.202691 14.537934,27.3993924 14.4063368,27.5465278 C14.2747396,27.6936632 14.0861979,27.7777778 13.8888889,27.7777778 L11.1111111,27.7777778 C10.9138021,27.7777778 10.7252604,27.6936632 10.5936632,27.5465278 C10.462066,27.3993924 10.3990451,27.202691 10.4207465,27.006684 L10.8588542,23.0671875 C10.1473958,22.5497396 9.72222222,21.73125 9.72222222,20.8333333 C9.72222222,19.3013889 10.9680556,18.0555556 12.5,18.0555556 C14.0319444,18.0555556 15.2777778,19.3013889 15.2777778,20.8333333 C15.2777778,21.73125 14.8526042,22.5497396 14.1411458,23.0671875 L14.5792535,27.006684 Z M18.0555556,12.5 L6.94444444,12.5 L6.94444444,9.72222222 C6.94444444,6.65894097 9.43671875,4.16666667 12.5,4.16666667 C15.5632813,4.16666667 18.0555556,6.65894097 18.0555556,9.72222222 L18.0555556,12.5 Z" id="Fill-1" fill="#FFFFFF" mask="url(#mask-2)"></path>
        </g>
    </g>
</svg>