<?xml version="1.0" encoding="UTF-8"?>
<svg width="46px" height="46px" viewBox="0 0 46 46" version="1.1" xmlns="http://www.w3.org/2000/svg" xmlns:xlink="http://www.w3.org/1999/xlink">
    <!-- Generator: Sketch 52.5 (67469) - http://www.bohemiancoding.com/sketch -->
    <title>productivity</title>
    <desc>Created with Sketch.</desc>
    <g id="productivity" stroke="none" stroke-width="1" fill="none" fill-rule="evenodd">
        <g id="001-printer" transform="translate(7.000000, 7.000000)" fill="#FFFFFF">
            <path d="M8,25 L8,31 L24,31 L24,21 L8,21 L8,25 Z M10,25 L22,25 L22,23 L10,23 L10,25 Z M10,29 L22,29 L22,27 L10,27 L10,29 Z" id="Fill-1"></path>
            <polygon id="Fill-2" points="24 7 24 1 8 1 8 11 24 11"></polygon>
            <path d="M28,7 L26,7 L26,13 L6,13 L6,7 L4,7 C2,7 0,9 0,11 L0,21 C0,23 2,25 4,25 L6,25 L6,19 L26,19 L26,25 L28,25 C30,25 32,23 32,21 L32,11 C32,9 30,7 28,7 Z" id="Fill-3"></path>
        </g>
    </g>
</svg>