<?xml version="1.0" encoding="UTF-8"?>
<svg width="46px" height="46px" viewBox="0 0 46 46" version="1.1" xmlns="http://www.w3.org/2000/svg" xmlns:xlink="http://www.w3.org/1999/xlink">
    <!-- Generator: Sketch 52.5 (67469) - http://www.bohemiancoding.com/sketch -->
    <title>version_control</title>
    <desc>Created with Sketch.</desc>
    <g id="version_control" stroke="none" stroke-width="1" fill="none" fill-rule="evenodd">
        <path d="M34.6331916,8.49252058 C33.7215302,7.58074515 32.6147897,7.12514248 31.312514,7.12514248 C30.0106943,7.12514248 28.9039538,7.58074515 27.9927484,8.49252058 C27.0814291,9.40372593 26.6258264,10.5100104 26.6258264,11.8127422 C26.6258264,12.6589592 26.8365255,13.4440643 27.2600901,14.1682855 C27.6831986,14.8923928 28.2523599,15.4584757 28.9689422,15.8651661 C28.9689422,16.7113831 28.8999633,17.456469 28.7618915,18.0990558 C28.6233636,18.7417565 28.3953343,19.3069273 28.0782594,19.7954802 C27.7601585,20.2840332 27.4315682,20.6987046 27.0895241,21.0407486 C26.747024,21.3827927 26.2669082,21.703972 25.6487206,22.0049708 C25.0300769,22.3060836 24.456013,22.55817 23.9273269,22.7621423 C23.3987548,22.9652025 22.686163,23.2053174 21.7909197,23.481803 C20.1631321,23.986888 18.9102247,24.4501297 18.0315136,24.8735802 L18.0315136,12.7399096 C18.7477538,12.3333332 19.3173712,11.7677064 19.7404797,11.0431431 C20.1631321,10.3189218 20.3746293,9.53370267 20.3746293,8.68714364 C20.3746293,7.38532398 19.9194827,6.27858345 19.0078213,5.36726408 C18.0966159,4.45605873 16.9898754,4 15.6875997,4 C14.385324,4 13.2790395,4.45560268 12.3673781,5.36726408 C11.4560587,6.27858345 11,7.38532398 11,8.68714364 C11,9.53370267 11.2116113,10.3189218 11.6347197,11.0431431 C12.0578282,11.7677064 12.6274456,12.3333332 13.3435718,12.7399096 L13.3435718,32.7592918 C12.6274456,33.1659822 12.0578282,33.7320651 11.6347197,34.4561723 C11.2116113,35.1803936 11,35.9659548 11,36.8121718 C11,38.1139914 11.4557167,39.2207319 12.3673781,40.1319373 C13.2790395,41.0432567 14.38578,41.4993154 15.6875997,41.4993154 C16.9898754,41.4993154 18.0966159,41.0432567 19.0078213,40.1319373 C19.9190266,39.2207319 20.3746293,38.1139914 20.3746293,36.8121718 C20.3746293,35.9659548 20.1631321,35.1803936 19.7404797,34.4561723 C19.3169151,33.7320651 18.7477538,33.1659822 18.0315136,32.7592918 L18.0315136,32.1246861 C18.0315136,31.0018695 18.369111,30.1882607 19.044306,29.6836317 C19.719957,29.1785467 21.0993067,28.6009483 23.182697,27.9502665 C25.380216,27.2501023 27.0325168,26.5905274 28.1392573,25.9718837 C31.7845348,23.9053675 33.6239337,20.5361196 33.6564278,15.8651661 C34.3730101,15.4584757 34.9422854,14.8923928 35.3653939,14.1682855 C35.7880464,13.4440643 35.9999997,12.6589592 35.9999997,11.8122861 C36.0004557,10.5104665 35.544397,9.40372593 34.6331916,8.49252058 Z M17.3483376,38.4725676 C16.8922788,38.9286263 16.3387376,39.1561996 15.6880558,39.1561996 C15.0369179,39.1561996 14.4832626,38.9286263 14.0276599,38.4725676 C13.5720572,38.017421 13.3440279,37.4637657 13.3440279,36.8130839 C13.3440279,36.16149 13.5720572,35.6084047 14.0276599,35.1528021 C14.4832626,34.6971994 15.0369179,34.46917 15.6880558,34.46917 C16.3387376,34.46917 16.8922788,34.6971994 17.3483376,35.1528021 C17.8039403,35.6084047 18.0315136,36.16149 18.0315136,36.8130839 C18.0315136,37.4637657 17.8039403,38.017421 17.3483376,38.4725676 Z M17.3483376,10.3478815 C16.8922788,10.8034842 16.3387376,11.0310575 15.6880558,11.0310575 C15.0369179,11.0310575 14.4832626,10.8034842 14.0276599,10.3478815 C13.5720572,9.89182279 13.3440279,9.33862354 13.3440279,8.6875997 C13.3440279,8.03646184 13.5720572,7.48280654 14.0276599,7.02765992 C14.4832626,6.57205725 15.0369179,6.34402788 15.6880558,6.34402788 C16.3387376,6.34402788 16.8922788,6.57205725 17.3483376,7.02765992 C17.8039403,7.48280654 18.0315136,8.03646184 18.0315136,8.6875997 C18.0315136,9.33862354 17.8039403,9.89227884 17.3483376,10.3478815 Z M32.9727958,13.473024 C32.5171931,13.9281706 31.9641079,14.1562 31.31297,14.1562 C30.6618322,14.1562 30.1081769,13.9281706 29.6530303,13.473024 C29.1974276,13.0174213 28.9693982,12.46388 28.9693982,11.8127422 C28.9693982,11.1616043 29.1974276,10.6084051 29.6530303,10.1528024 C30.1086329,9.69674366 30.6618322,9.46917035 31.31297,9.46917035 C31.9641079,9.46917035 32.5171931,9.69674366 32.9727958,10.1528024 C33.4283985,10.607949 33.6564278,11.1616043 33.6564278,11.8127422 C33.6564278,12.46388 33.4288545,13.0174213 32.9727958,13.473024 Z" id="002-code-fork-symbol" fill="#FFFFFF"></path>
    </g>
</svg>