<?xml version="1.0" encoding="UTF-8"?>
<svg width="46px" height="46px" viewBox="0 0 46 46" version="1.1" xmlns="http://www.w3.org/2000/svg" xmlns:xlink="http://www.w3.org/1999/xlink">
    <!-- Generator: Sketch 52.5 (67469) - http://www.bohemiancoding.com/sketch -->
    <title>virtualization</title>
    <desc>Created with Sketch.</desc>
    <g id="virtualization" stroke="none" stroke-width="1" fill="none" fill-rule="evenodd">
        <g id="009-pause-button" transform="translate(13.000000, 7.000000)" fill="#FFFFFF">
            <path d="M4.08363636,0.471818182 C2.19818182,0.471818182 0.674545455,1.99818182 0.674545455,3.88090909 L0.674545455,28.4081818 C0.674545455,30.2936364 2.19818182,31.8172727 4.08363636,31.8172727 C5.96545455,31.8172727 7.49272727,30.2936364 7.49272727,28.4081818 L7.49272727,3.88090909 C7.49272727,1.99818182 5.96545455,0.471818182 4.08363636,0.471818182 Z" id="Fill-1"></path>
            <path d="M16.3563636,0.471818182 C14.4709091,0.471818182 12.9472727,1.99818182 12.9472727,3.88090909 L12.9472727,28.4081818 C12.9472727,30.2936364 14.4709091,31.8172727 16.3563636,31.8172727 C18.2381818,31.8172727 19.7654545,30.2936364 19.7654545,28.4081818 L19.7654545,3.88090909 C19.7654545,1.99818182 18.2381818,0.471818182 16.3563636,0.471818182 Z" id="Fill-2"></path>
        </g>
    </g>
</svg>